<svg version="1.1" id="Capa_1" xmlns="http://www.w3.org/2000/svg" x="0" y="0" width="1800.1" height="302.4" viewBox="0 0 1800.1 302.4" xml:space="preserve"><style>.st0{fill:#3c58bf}.st1{fill:#293688}.st3{fill:#f7981d}.st12{fill:#fff}.st14{fill:#dce5e5}</style><path class="st0" d="M184.8 223.2l25.6-144h40l-24.8 144z"/><path class="st1" d="M184.8 223.2l32.8-144h32.8l-24.8 144z"/><path class="st0" d="M370.4 81.6c-8-3.2-20.8-6.4-36.8-6.4-40 0-68.8 20-68.8 48.8 0 21.6 20 32.8 36 40s20.8 12 20.8 18.4c0 9.6-12.8 14.4-24 14.4-16 0-24.8-2.4-38.4-8l-5.6-2.4-5.6 32.8c9.6 4 27.2 8 45.6 8 42.4 0 70.4-20 70.4-50.4 0-16.8-10.4-29.6-34.4-40-14.4-7.2-23.2-11.2-23.2-18.4 0-6.4 7.2-12.8 23.2-12.8 13.6 0 23.2 2.4 30.4 5.6l4 1.6 6.4-31.2z"/><path class="st1" d="M370.4 81.6c-8-3.2-20.8-6.4-36.8-6.4-40 0-61.6 20-61.6 48.8 0 21.6 12.8 32.8 28.8 40s20.8 12 20.8 18.4c0 9.6-12.8 14.4-24 14.4-16 0-24.8-2.4-38.4-8l-5.6-2.4-5.6 32.8c9.6 4 27.2 8 45.6 8 42.4 0 70.4-20 70.4-50.4 0-16.8-10.4-29.6-34.4-40-14.4-7.2-23.2-11.2-23.2-18.4 0-6.4 7.2-12.8 23.2-12.8 13.6 0 23.2 2.4 30.4 5.6l4 1.6 6.4-31.2z"/><path class="st0" d="M439.2 79.2c-9.6 0-16.8.8-20.8 10.4l-60 133.6h43.2l8-24h51.2l4.8 24H504l-33.6-144h-31.2zm-18.4 96c2.4-7.2 16-42.4 16-42.4s3.2-8.8 5.6-14.4l2.4 13.6s8 36 9.6 44h-33.6v-.8z"/><path class="st1" d="M448.8 79.2c-9.6 0-16.8.8-20.8 10.4l-69.6 133.6h43.2l8-24h51.2l4.8 24H504l-33.6-144h-21.6zm-28 96c3.2-8 16-42.4 16-42.4s3.2-8.8 5.6-14.4l2.4 13.6s8 36 9.6 44h-33.6v-.8z"/><path class="st0" d="M111.2 179.2l-4-20.8c-7.2-24-30.4-50.4-56-63.2l36 128h43.2l64.8-144H152l-40.8 100z"/><path class="st1" d="M111.2 179.2l-4-20.8c-7.2-24-30.4-50.4-56-63.2l36 128h43.2l64.8-144H160l-48.8 100z"/><path d="M0 111.2l7.2 1.6c51.2 12 86.4 42.4 100 78.4l-14.4-68c-2.4-9.6-9.6-12-18.4-12H0z" fill="#ffbc00"/><path class="st3" d="M0 111.6c51.2 12 93.6 43.2 107.2 79.2L93.6 134c-2.4-9.6-10.4-15.2-19.2-15.2L0 111.6z"/><path d="M0 111.6c51.2 12 93.6 43.2 107.2 79.2l-9.6-31.2c-2.4-9.6-5.6-19.2-16.8-23.2L0 111.6z" fill="#ed7c00"/><path d="M151.2 165.2L124 138l-12.8 30.4-3.2-20c-7.2-24-30.4-50.4-56-63.2l36 128h43.2l20-48zm74.4 48L191.2 178l-6.4 35.2zm92-49.6c3.2 3.2 4.8 5.6 4 8.8 0 9.6-12.8 14.4-24 14.4-16 0-24.8-2.4-38.4-8l-5.6-2.4-5.6 32.8c9.6 4 27.2 8 45.6 8 25.6 0 46.4-7.2 58.4-20l-34.4-33.6zm46.4 49.6h37.6l8-24h51.2l4.8 24H504l-13.6-58.4-48-46.4 2.4 12.8s8 36 9.6 44h-33.6c3.2-8 16-42.4 16-42.4s3.2-8.8 5.6-14.4" fill="#051244"/><path d="M902.6 263.6c30.4-27.2 49.6-67.2 49.6-112s-19.2-84-49.6-112C876.2 15.6 840.2.4 801.8.4c-83.2 0-151.2 68-151.2 151.2S718.6 302 801.8 302c38.4.8 74.4-14.4 100.8-38.4z" fill="#07a9e2"/><path d="M650.6 151.6c0 83.2 68 150.4 151.2 150.4 39.2 0 74.4-14.4 100.8-39.2 30.4-27.2 49.6-67.2 49.6-112S933 67.6 902.6 39.6C876.2 15.6 840.2.4 801.8.4" fill="#009ddd"/><path d="M902.6 39.6C876.2 15.6 840.2.4 801.8.4h-7.2C747.4 34.8 717 90 717 151.6s30.4 116.8 76.8 150.4h7.2c39.2 0 74.4-14.4 100.8-39.2 30.4-27.2 49.6-67.2 49.6-112S933 67.6 902.6 39.6z" fill="#0284cc"/><path d="M1004.2 0C965 0 929.8 14.4 902.6 39.2c-5.6 4.8-10.4 10.4-15.2 16h30.4c4 4.8 8 10.4 11.2 16h-53.6c-3.2 5.6-6.4 10.4-8.8 16h71.2c2.4 5.6 4.8 10.4 6.4 16H861c-1.6 5.6-3.2 10.4-4.8 16H949c2.4 10.4 3.2 20.8 3.2 32 0 16.8-2.4 32.8-8 48H861c1.6 5.6 4 10.4 6.4 16h71.2c-2.4 5.6-5.6 11.2-8.8 16h-53.6c3.2 5.6 7.2 11.2 11.2 16h30.4c-4.8 5.6-9.6 11.2-15.2 16 27.2 24 62.4 39.2 101.6 39.2 83.2 0 150.4-67.2 150.4-150.4 0-84-67.2-152-150.4-152z" fill="#ff2957"/><path d="M1004.2 0C965 0 929.8 14.4 902.6 39.2c-5.6 4.8-10.4 10.4-15.2 16h30.4c4 4.8 8 10.4 11.2 16h-53.6c-3.2 5.6-6.4 10.4-8.8 16h71.2c2.4 5.6 4.8 10.4 6.4 16H861c-1.6 5.6-3.2 10.4-4.8 16H949c2.4 10.4 3.2 20.8 3.2 32 0 16.8-2.4 32.8-8 48H861c1.6 5.6 4 10.4 6.4 16h71.2c-2.4 5.6-5.6 11.2-8.8 16h-53.6c3.2 5.6 7.2 11.2 11.2 16h30.4c-4.8 5.6-9.6 11.2-15.2 16 27.2 24 62.4 39.2 101.6 39.2 83.2 0 150.4-67.2 150.4-150.4" fill="#ed1c2e"/><path d="M902.6 263.2c30.4-27.2 49.6-67.2 49.6-112s-19.2-84-49.6-112v224z" fill="#0466b5"/><path class="st12" d="M1102.6 151.2c0-2.4 2.4-4.8 4.8-4.8s4.8 2.4 4.8 4.8-2.4 4.8-4.8 4.8-4.8-2.4-4.8-4.8zm4.8 4c2.4 0 3.2-1.6 3.2-4s-1.6-3.2-3.2-3.2c-2.4 0-4 1.6-4 3.2s2.4 4 4 4zm0-2.4h-.8v-4h2.4l.8.8c0 .8 0 .8-.8.8l.8 1.6h-.8l-.8-1.6h-.8v2.4zm0-2.4h.8v-.8h-.8v.8z"/><path d="M902.6 38.5c-5.6 4.8-10.4 10.4-15.2 16h30.4c4 4.8 8 10.4 11.2 16h-53.6c-3.2 5.6-6.4 10.4-8.8 16h71.2c2.4 5.6 4.8 10.4 6.4 16H861c-1.6 5.6-3.2 10.4-4.8 16H949c2.4 10.4 3.2 20.8 3.2 32 0 16.8-2.4 32.8-8 48H861c1.6 5.6 4 10.4 6.4 16h71.2c-2.4 5.6-5.6 11.2-8.8 16h-53.6c3.2 5.6 7.2 11.2 11.2 16h30.4c-4.8 5.6-9.6 11.2-15.2 16 27.2 24 62.4 39.2 101.6 39.2h7.2c46.4-33.6 76.8-88.8 76.8-150.4S1057.8 34.5 1011.4.9h-7.2C965-.7 929.8 14.5 902.6 38.5z" fill="#d1094b"/><path class="st12" d="M782.6 189.6h-19.2l11.2-58.4-25.6 58.4h-16.8l-3.2-58.4-11.2 58.4H701l14.4-76.8H745l1.6 48 20.8-48h30.4z"/><path class="st14" d="M764.2 154.8l11.2-24.8-8.8 46.4c.8 4 1.6 8.8 3.2 12.8h12.8l14.4-76.8h-28c-3.2 12-5.6 25.6-5.6 39.2.8.8.8 1.6.8 3.2zm228 32.8c-5.6 1.6-8.8 2.4-13.6 2.4-9.6 0-14.4-4.8-14.4-13.6 0-1.6 0-3.2.8-5.6l.8-6.4.8-4.8 8.8-47.2h18.4l-2.4 14.4h9.6l-2.4 14.4H989l-4.8 25.6c0 .8-.8 2.4-.8 2.4 0 3.2 2.4 4.8 6.4 4.8 2.4 0 4 0 4.8-.8l-2.4 14.4zm55.2-60.8c-1.6-.8-1.6-.8-2.4-.8-.8 0-1.6 0-1.6-.8h-2.4c-6.4 0-10.4 2.4-16 10.4l1.6-9.6h-16.8l-11.2 62.4h19.2c6.4-38.4 9.6-44.8 18.4-44.8h2.4l2.4.8 6.4-17.6zM917.8 146c0 8 4.8 13.6 14.4 16.8 8 3.2 8.8 4 8.8 7.2 0 4-3.2 5.6-11.2 5.6-5.6 0-11.2-.8-16.8-2.4l-2.4 14.4h.8l3.2.8h4.8c4.8.8 8 .8 10.4.8 20 0 29.6-6.4 29.6-20.8 0-8.8-4-13.6-13.6-17.6-8-3.2-8.8-4-8.8-6.4 0-3.2 3.2-4.8 9.6-4.8 3.2 0 8.8 0 13.6.8l2.4-14.4c-4.8-.8-12-.8-16.8-.8-20.8 0-28 9.6-28 20.8zm-74.4 42.4h-15.2V182c-4.8 4.8-11.2 7.2-20 7.2-10.4 0-16.8-7.2-16.8-16.8 0-15.2 12-24 32.8-24h8c.8-2.4.8-3.2.8-4 0-4-3.2-5.6-12-5.6-5.6 0-11.2.8-15.2 1.6l-2.4.8h-1.6l2.4-13.6c9.6-2.4 15.2-3.2 22.4-3.2 16 0 24.8 6.4 24.8 18.4 0 3.2 0 5.6-1.6 12.8l-4 22.4-.8 4-.8 3.2v2.4l-.8.8zm-13.6-28h-4c-10.4 0-16 3.2-16 9.6 0 4 2.4 6.4 6.4 6.4 8 0 13.6-6.4 13.6-16zm75.2 26.4c-6.4 1.6-12.8 2.4-19.2 2.4-20.8 0-32-9.6-32-28 0-21.6 13.6-36.8 32.8-36.8 15.2 0 24.8 8.8 24.8 22.4 0 4.8-.8 8.8-2.4 15.2h-37.6v2.4c0 7.2 5.6 11.2 16 11.2 7.2 0 12.8-.8 19.2-4l-1.6 15.2zm-9.6-36.8v-3.2c0-4.8-3.2-8-8.8-8-5.6 0-10.4 4-12 11.2h20.8z"/><path class="st12" d="M1105.8 154.4c-3.2 20.8-17.6 29.6-36.8 29.6-20.8 0-29.6-12.8-29.6-28.8 0-21.6 14.4-36.8 36.8-36.8 19.2 0 29.6 12.8 29.6 28v8zm-20-8c0-6.4-2.4-12-10.4-12-9.6 0-15.2 11.2-15.2 21.6 0 8 4 13.6 10.4 13.6 4 0 12.8-5.6 14.4-15.2.8-3.2.8-5.6.8-8z"/><path class="st12" d="M1040.2 162.4c.8-5.6 1.6-12 1.6-17.6v-1.6c-.8 4-1.6 8-1.6 12.8-.8 1.6-.8 4 0 6.4z"/><path d="M1800.1 151.2c0 83.2-67.2 151.2-151.2 151.2-83.2 0-151.2-68-151.2-151.2C1497.7 68 1564.9 0 1648.1 0c84.8 0 152 68 152 151.2z" fill="#ffb600"/><path class="st3" d="M1648.9 0c83.2 0 151.2 68 151.2 151.2 0 83.2-67.2 151.2-151.2 151.2-83.2 0-151.2-68-151.2-151.2"/><path d="M1648.9 0c83.2 0 151.2 68 151.2 151.2 0 83.2-67.2 151.2-151.2 151.2" fill="#ff8500"/><path d="M1445.7 0c-82.4.8-149.6 68-149.6 151.2s67.2 151.2 151.2 151.2c39.2 0 74.4-15.2 101.6-39.2 5.6-4.8 10.4-10.4 15.2-16h-31.2c-4-4.8-8-10.4-11.2-15.2h53.6c3.2-4.8 6.4-10.4 8.8-16h-71.2c-2.4-4.8-4.8-10.4-6.4-16h83.2c4.8-15.2 8-31.2 8-48 0-11.2-1.6-21.6-3.2-32h-92.8c.8-5.6 2.4-10.4 4-16h83.2c-1.6-5.6-4-11.2-6.4-16h-70.4c2.4-5.6 5.6-10.4 8.8-16h53.6c-3.2-5.6-7.2-11.2-12-16h-29.6c4.8-5.6 9.6-10.4 15.2-15.2-26.4-24.8-62.4-39.2-101.6-39.2 0-1.6 0-1.6-.8-1.6z" fill="#ff5050"/><path d="M1296.1 150.4c0 83.2 67.2 151.2 151.2 151.2 39.2 0 74.4-15.2 101.6-39.2 5.6-4.8 10.4-10.4 15.2-16h-31.2c-4-4.8-8-10.4-11.2-15.2h53.6c3.2-4.8 6.4-10.4 8.8-16h-71.2c-2.4-4.8-4.8-10.4-6.4-16h83.2c4.8-15.2 8-31.2 8-48 0-11.2-1.6-21.6-3.2-32h-92.8c.8-5.6 2.4-10.4 4-16h83.2c-1.6-5.6-4-11.2-6.4-16h-70.4c2.4-5.6 5.6-10.4 8.8-16h53.6c-3.2-5.6-7.2-11.2-12-16h-29.6c4.8-5.6 9.6-10.4 15.2-15.2C1521.7 15.2 1485.7.8 1446.5.8h-.8" fill="#e52836"/><path d="M1447.3 301.6c39.2 0 74.4-15.2 101.6-39.2 5.6-4.8 10.4-10.4 15.2-16h-31.2c-4-4.8-8-10.4-11.2-15.2h53.6c3.2-4.8 6.4-10.4 8.8-16h-71.2c-2.4-4.8-4.8-10.4-6.4-16h83.2c4.8-15.2 8-31.2 8-48 0-11.2-1.6-21.6-3.2-32h-92.8c.8-5.6 2.4-10.4 4-16h83.2c-1.6-5.6-4-11.2-6.4-16h-70.4c2.4-5.6 5.6-10.4 8.8-16h53.6c-3.2-5.6-7.2-11.2-12-16h-29.6c4.8-5.6 9.6-10.4 15.2-15.2C1521.7 15.2 1485.7.8 1446.5.8h-.8" fill="#cb2026"/><path class="st12" d="M1500.9 188.8l2.4-13.6c-.8 0-2.4.8-4 .8-5.6 0-6.4-3.2-5.6-4.8l4.8-28h8.8l2.4-15.2h-8l1.6-9.6h-16s-9.6 52.8-9.6 59.2c0 9.6 5.6 13.6 12.8 13.6 4.8 0 8.8-1.6 10.4-2.4zm5.6-25.6c0 22.4 15.2 28 28 28 12 0 16.8-2.4 16.8-2.4l3.2-15.2s-8.8 4-16.8 4c-17.6 0-14.4-12.8-14.4-12.8h32.8s2.4-10.4 2.4-14.4c0-10.4-5.6-23.2-23.2-23.2-16.8-1.6-28.8 16-28.8 36zm28-23.2c8.8 0 7.2 10.4 7.2 11.2h-17.6c0-.8 1.6-11.2 10.4-11.2zm101.6 48.8l3.2-17.6s-8 4-13.6 4c-11.2 0-16-8.8-16-18.4 0-19.2 9.6-29.6 20.8-29.6 8 0 14.4 4.8 14.4 4.8l2.4-16.8s-9.6-4-18.4-4c-18.4 0-36.8 16-36.8 46.4 0 20 9.6 33.6 28.8 33.6 6.4 0 15.2-2.4 15.2-2.4zm-223.2-63.2c-11.2 0-19.2 3.2-19.2 3.2l-2.4 13.6s7.2-3.2 17.6-3.2c5.6 0 10.4.8 10.4 5.6 0 3.2-.8 4-.8 4h-7.2c-13.6 0-28.8 5.6-28.8 24 0 14.4 9.6 17.6 15.2 17.6 11.2 0 16-7.2 16.8-7.2l-.8 6.4h14.4l6.4-44c0-19.2-16-20-21.6-20zm3.2 36c0 2.4-1.6 15.2-11.2 15.2-4.8 0-6.4-4-6.4-6.4 0-4 2.4-9.6 14.4-9.6 2.4.8 3.2.8 3.2.8zm33.6 28.8c4 0 24 .8 24-20.8 0-20-19.2-16-19.2-24 0-4 3.2-5.6 8.8-5.6 2.4 0 11.2.8 11.2.8l2.4-14.4s-5.6-1.6-15.2-1.6c-12 0-24 4.8-24 20.8 0 18.4 20 16.8 20 24 0 4.8-5.6 5.6-9.6 5.6-7.2 0-14.4-2.4-14.4-2.4l-2.4 14.4c.8 1.6 4.8 3.2 18.4 3.2zm319.2-77.6l-3.2 21.6s-6.4-8-15.2-8c-14.4 0-27.2 17.6-27.2 38.4 0 12.8 6.4 26.4 20 26.4 9.6 0 15.2-6.4 15.2-6.4l-.8 5.6h16l12-76.8-16.8-.8zm-7.2 42.4c0 8.8-4 20-12.8 20-5.6 0-8.8-4.8-8.8-12.8 0-12.8 5.6-20.8 12.8-20.8 5.6 0 8.8 4 8.8 13.6zm-436 34.4l9.6-57.6 1.6 57.6h11.2l20.8-57.6-8.8 57.6h16.8l12.8-76.8h-26.4l-16 47.2-.8-47.2h-23.2l-12.8 76.8h15.2zm248 0c4.8-26.4 5.6-48 16.8-44 1.6-10.4 4-14.4 5.6-18.4h-3.2c-7.2 0-12.8 9.6-12.8 9.6l1.6-8.8h-15.2l-10.4 62.4h17.6v-.8zm99.2-64c-11.2 0-19.2 3.2-19.2 3.2l-2.4 13.6s7.2-3.2 17.6-3.2c5.6 0 10.4.8 10.4 5.6 0 3.2-.8 4-.8 4h-7.2c-13.6 0-28.8 5.6-28.8 24 0 14.4 9.6 17.6 15.2 17.6 11.2 0 16-7.2 16.8-7.2l-.8 6.4h14.4l6.4-44c.8-19.2-16-20-21.6-20zm4 36c0 2.4-1.6 15.2-11.2 15.2-4.8 0-6.4-4-6.4-6.4 0-4 2.4-9.6 14.4-9.6 2.4.8 2.4.8 3.2.8zm31.2 28c4.8-26.4 5.6-48 16.8-44 1.6-10.4 4-14.4 5.6-18.4h-3.2c-7.2 0-12.8 9.6-12.8 9.6l1.6-8.8h-15.2l-10.4 62.4h17.6v-.8z"/><path class="st14" d="M1476.1 177.6c0 9.6 5.6 13.6 12.8 13.6 5.6 0 10.4-1.6 12-2.4l2.4-13.6c-.8 0-2.4.8-4 .8-5.6 0-6.4-3.2-5.6-4.8l4.8-28h8.8l2.4-15.2h-8l1.6-9.6m11.2 44.8c0 22.4 7.2 28 20 28 12 0 16.8-2.4 16.8-2.4l3.2-15.2s-8.8 4-16.8 4c-17.6 0-14.4-12.8-14.4-12.8h32.8s2.4-10.4 2.4-14.4c0-10.4-5.6-23.2-23.2-23.2-16.8-1.6-20.8 16-20.8 36zm20-23.2c8.8 0 10.4 10.4 10.4 11.2h-20.8c0-.8 1.6-11.2 10.4-11.2zm101.6 48.8l3.2-17.6s-8 4-13.6 4c-11.2 0-16-8.8-16-18.4 0-19.2 9.6-29.6 20.8-29.6 8 0 14.4 4.8 14.4 4.8l2.4-16.8s-9.6-4-18.4-4c-18.4 0-28.8 16-28.8 46.4 0 20 1.6 33.6 20.8 33.6 6.4 0 15.2-2.4 15.2-2.4zm-244.8-45.6s7.2-3.2 17.6-3.2c5.6 0 10.4.8 10.4 5.6 0 3.2-.8 4-.8 4h-7.2c-13.6 0-28.8 5.6-28.8 24 0 14.4 9.6 17.6 15.2 17.6 11.2 0 16-7.2 16.8-7.2l-.8 6.4h14.4l6.4-44c0-18.4-16-19.2-22.4-19.2m12 34.4c0 2.4-9.6 15.2-19.2 15.2-4.8 0-6.4-4-6.4-6.4 0-4 2.4-9.6 14.4-9.6 2.4.8 11.2.8 11.2.8zm8 27.2s4.8 1.6 18.4 1.6c4 0 24 .8 24-20.8 0-20-19.2-16-19.2-24 0-4 3.2-5.6 8.8-5.6 2.4 0 11.2.8 11.2.8l2.4-14.4s-5.6-1.6-15.2-1.6c-12 0-16 4.8-16 20.8 0 18.4 12 16.8 12 24 0 4.8-5.6 5.6-9.6 5.6m316.8-40.8s-6.4-8-15.2-8c-14.4 0-19.2 17.6-19.2 38.4 0 12.8-1.6 26.4 12 26.4 9.6 0 15.2-6.4 15.2-6.4l-.8 5.6h16l12-76.8m-20.8 41.6c0 8.8-7.2 20-16 20-5.6 0-8.8-4.8-8.8-12.8 0-12.8 5.6-20.8 12.8-20.8 5.6 0 12 4 12 13.6zm-439.2 34.4l9.6-57.6 1.6 57.6h11.2l20.8-57.6-8.8 57.6h16.8l12.8-76.8h-20l-22.4 47.2-.8-47.2h-8.8l-27.2 76.8h15.2zm231.2 0h16.8c4.8-26.4 5.6-48 16.8-44 1.6-10.4 4-14.4 5.6-18.4h-3.2c-7.2 0-12.8 9.6-12.8 9.6l1.6-8.8m69.6 15.2s7.2-3.2 17.6-3.2c5.6 0 10.4.8 10.4 5.6 0 3.2-.8 4-.8 4h-7.2c-13.6 0-28.8 5.6-28.8 24 0 14.4 9.6 17.6 15.2 17.6 11.2 0 16-7.2 16.8-7.2l-.8 6.4h14.4l6.4-44c0-18.4-16-19.2-22.4-19.2m12 34.4c0 2.4-9.6 15.2-19.2 15.2-4.8 0-6.4-4-6.4-6.4 0-4 2.4-9.6 14.4-9.6 3.2.8 11.2.8 11.2.8zm7.2 28h16.8c4.8-26.4 5.6-48 16.8-44 1.6-10.4 4-14.4 5.6-18.4h-3.2c-7.2 0-12.8 9.6-12.8 9.6l1.6-8.8"/></svg>